<svg width="799" height="529" viewBox="0 0 799 529" fill="none" xmlns="http://www.w3.org/2000/svg">
<g clip-path="url(#clip0_9258_450)">
<path d="M763.5 298.36C782.809 298.36 798.462 282.707 798.462 263.398C798.462 244.089 782.809 228.437 763.5 228.437C744.191 228.437 728.538 244.089 728.538 263.398C728.538 282.707 744.191 298.36 763.5 298.36Z" fill="white"/>
<path d="M759.353 248.063C759.135 247.831 758.772 247.816 758.539 248.034C758.306 248.252 758.291 248.616 758.51 248.849C758.51 248.849 758.51 248.849 758.524 248.864L772.928 263.369L758.786 277.511C758.553 277.729 758.539 278.093 758.772 278.326C759.004 278.558 759.353 278.573 759.586 278.34C759.586 278.34 759.586 278.34 759.601 278.326L774.15 263.776C774.368 263.558 774.368 263.194 774.15 262.962L759.353 248.049V248.063Z" fill="#00309B"/>
<path d="M788.306 238.388C774.485 224.683 752.181 224.785 738.49 238.592C724.872 252.326 724.872 274.47 738.49 288.205C752.195 302.026 774.499 302.114 788.306 288.423C802.128 274.717 802.215 252.414 788.525 238.606C788.452 238.534 788.379 238.461 788.306 238.388ZM787.492 287.39C774.179 300.702 752.617 300.702 739.305 287.39C725.992 274.077 725.992 252.515 739.305 239.203C752.617 225.89 774.179 225.89 787.492 239.203C800.804 252.515 800.804 274.077 787.492 287.39Z" fill="#00309B"/>
</g>
<defs>
<clipPath id="clip0_9258_450">
<rect width="71" height="71" fill="white" transform="translate(728 228)"/>
</clipPath>
</defs>
</svg>
