<svg width="44" height="42" viewBox="0 0 44 42" fill="none" xmlns="http://www.w3.org/2000/svg">
<g clip-path="url(#clip0_9258_463)">
<path d="M44 16.0411C43.8012 16.1885 43.6981 16.2695 43.5951 16.3506C39.2805 19.4748 34.9732 22.599 30.6586 25.7085C30.4157 25.8779 30.3715 26.0106 30.4672 26.2979C32.1386 31.3821 33.8026 36.4737 35.4592 41.5653C35.496 41.6758 35.5328 41.7937 35.5917 41.9927C35.4076 41.86 35.2898 41.779 35.1794 41.6979C30.8795 38.559 26.5797 35.42 22.2872 32.2737C22.0368 32.0895 21.8822 32.0895 21.6319 32.2737C17.3394 35.42 13.0395 38.559 8.73963 41.6979C8.62183 41.779 8.51138 41.86 8.31995 42C8.70282 40.8285 9.04887 39.7527 9.40228 38.6695C10.757 34.5358 12.1044 30.4021 13.4665 26.2685C13.5475 26.0253 13.5181 25.8927 13.2972 25.7306C8.96788 22.6064 4.64592 19.4748 0.331332 16.3432C0.22089 16.2621 0.117811 16.1811 0.0220947 16.0264C0.161988 16.0264 0.294518 16.0264 0.434411 16.0264C5.73562 16.0264 11.0368 16.0411 16.338 16.0558C16.6693 16.0558 16.8166 15.9822 16.9197 15.6432C18.5395 10.5664 20.1814 5.49689 21.8233 0.420044C21.8601 0.309518 21.9043 0.198992 21.9779 -0.00732422C23.7229 5.4011 25.4384 10.7137 27.154 16.0337H44.0221L44 16.0411Z" fill="#F9BB26"/>
</g>
<defs>
<clipPath id="clip0_9258_463">
<rect width="44" height="42" fill="white"/>
</clipPath>
</defs>
</svg>
